<svg width="32" height="32" viewBox="0 0 32 32" fill="none" xmlns="http://www.w3.org/2000/svg">
<path d="M11.0727 5.00034C10.0281 4.99151 8.98923 5.15529 7.99855 5.48499C7.07094 5.79778 6.20416 6.26662 5.43598 6.8711C4.71024 7.44031 4.10714 8.14907 3.66264 8.95511C3.31605 9.59094 3.10228 10.2899 3.03417 11.01C3.01053 11.2095 2.99914 11.4102 3.00007 11.611C2.99901 11.8086 3.0104 12.0061 3.03417 12.2023C3.10242 12.9156 3.3145 13.6079 3.65776 14.2378C4.10693 15.0435 4.71116 15.7533 5.43598 16.3267C6.20259 16.9335 7.06979 17.4026 7.99855 17.7128C8.99332 18.0561 10.0392 18.2298 11.0922 18.2265H21.9563C22.6486 18.2117 23.3236 18.4419 23.8612 18.876C24.1073 19.0525 24.3086 19.2838 24.449 19.5513C24.5894 19.8189 24.665 20.1154 24.6699 20.4172C24.6671 20.7107 24.5864 20.9982 24.4361 21.2508C24.2752 21.5224 24.0674 21.7636 23.8222 21.9632C23.5704 22.1878 23.2843 22.371 22.9745 22.506C22.6481 22.6477 22.2977 22.7267 21.9417 22.7387H3.03417V26.9988H22.0002C23.0406 27.0161 24.0761 26.852 25.0597 26.5141C25.991 26.2043 26.8602 25.7334 27.6271 25.1231C28.3412 24.5526 28.9313 23.8436 29.3615 23.0391C29.7901 22.2298 30.0094 21.3271 29.9997 20.4123C30.0046 19.5275 29.7993 18.654 29.4005 17.863C28.9862 17.0592 28.4148 16.3457 27.7197 15.7645C26.9621 15.1279 26.0935 14.6351 25.1571 14.3105C24.1199 13.9546 23.0291 13.7776 21.932 13.7871H11.0727C10.4136 13.7841 9.77243 13.5737 9.24087 13.1861C8.97593 13.013 8.75929 12.776 8.61108 12.4972C8.46288 12.2185 8.38792 11.9069 8.39317 11.5916C8.3915 11.2691 8.4828 10.9529 8.65625 10.6805C8.83869 10.4126 9.06806 10.1794 9.33343 9.99227C9.59463 9.79407 9.8879 9.64164 10.2006 9.54154C10.9047 9.33087 11.6386 9.23592 12.3734 9.26044H29.912V5.00034H11.0727Z" fill="#E31C19"/>
</svg>
