<svg width="181" height="58" viewBox="0 0 181 58" fill="none" xmlns="http://www.w3.org/2000/svg">
<path d="M22.8 0C22.6 0 16.8 1.43051e-06 11.2 2.9C7.9 4.6 5.3 6.9 3.5 9.8C1.5 12.9 0.299998 16.6 0.0999985 21C0.0999985 21.7 0 22.4 0 23.1C0 23.8 -1.52737e-06 24.5 0.0999985 25.4C0.399998 29.6 1.6 33.2 3.6 36.1C5.5 38.9 8.2 41.1 11.5 42.8C17.2 45.6 22.9 45.6 23 45.6H48.4H48.8L48.6 46L44 56.2L43.8 56.7L43.6 57.1H44H44.6C46.1 57.1 58.9 56.6 61.9 54.1C65.2 51.3 68.1 46.8 71.9 38.6C72.2 37.9 72.5 37.3 72.8 36.6L73.4 35.3L73.6 34.8L73.8 34.4H28.6C28.6 34.4 25.2 34.4 21.9 33C20 32.2 18.4 31.1 17.3 29.8C16.4 28.6 15.7 27.3 15.4 25.7C15.3 25 15.2 24.3 15.2 23.5V23.4V23.3C15.2 22.6 15.3 21.8 15.4 21.2C15.7 19.5 16.3 18.1 17.3 16.8C18.4 15.4 19.9 14.2 21.9 13.4C24.9 12.1 28 12 28.6 11.9H35.2H53.8C53.8 11.9 72.6 11.9 74.6 11.9C76.6 11.9 75.4 12.3 74.6 12.5C71.8 13.1 67 14.3 65.9 14.6C64.7 14.9 63.7 15.4 62.9 16.1C62.1 16.8 61.4 18.1 61.2 18.5L55.3 31.5L55 31.8L54.8 32.2H55.2H55.8C58.4 32 67.2 31.2 73.3 28.9C76.9 27.5 80.1 20.1 82.1 15.7C83.6 12.3 84.8 11.8 87.2 11.7C87.5 11.7 87.7 11.7 88 11.7H110.5C113.1 11.7 115.6 11.1 118 9.9C119.9 9 121.6 7.6 123.2 6C124 5.2 124.7 4.3 125.4 3.4C126.1 2.4 126.6 1.5 126.8 1.1L127.1 0.600002L127.3 0.200001H22.8V0ZM50.5 46.5C50.8 45.9 50.7 45.2 50.3 44.6C49.9 44 49.3 43.7 48.6 43.7H23C22.9 43.7 17.6 43.6 12.3 41.1C9.3 39.6 6.9 37.6 5.1 35.1C4.7 34.6 4.4 34 4.1 33.4C3.9 33 3.7 32.6 3.5 32.1C3.5 32 3.4 31.9 3.4 31.9C3.3 31.5 3.1 31.2 3 30.8C3 30.8 3 30.8 3 30.7C2.5 29.1 2.1 27.4 2 25.5H7.2C7.2 26.8 7.6 29.5 10.1 33.7C11.4 36 13.6 37.7 16.3 38.9C21.3 41.2 25.6 41.5 28.7 41.5C31 41.5 49.6 41.5 49.6 41.5C51.1 41.5 52.5 42.1 53.3 43.3C54.1 44.6 53.5 46.4 52 48.7C50.6 50.8 49.5 52.4 46.7 54.8L50.5 46.5ZM60.8 53.1C59.2 54.4 52.6 54.8 46.6 55C62 53.8 68.7 41.2 70.4 37.2C67.4 44.8 64.2 50.2 60.8 53.1ZM80.4 14.8C78.8 18.4 75.6 26.5 72.8 27.6C68.9 29.1 61.4 29.8 57.6 30.3C57.8 30.2 57.9 30.1 58.1 30C62.4 27.8 68.8 24.8 70.5 23.5C73.4 21.4 78 15.5 81.6 12.5C81.2 13.2 80.8 13.9 80.4 14.8ZM123.9 1.9C123.8 2.1 123.6 2.3 123.5 2.5L123.4 2.6C123 3.1 122.7 3.5 122.3 4C122.1 4.2 122 4.4 121.8 4.5C120.4 6 118.8 7.2 117.1 8C115 9 112.8 9.7 110.5 9.7C110.5 9.7 28.7 9.7 28.6 9.7C28.4 9.7 24.8 9.7 21.1 11.3C18.9 12.3 17.1 13.6 15.8 15.3C15.6 15.6 15.4 15.8 15.3 16.1C15.2 16.2 15.1 16.4 15.1 16.5C15.1 16.5 15.1 16.6 15 16.6C15 16.6 15 16.6 15 16.7C15 16.7 15 16.7 15 16.8C15 16.9 14.9 17 14.9 17C14.8 17.2 14.7 17.4 14.6 17.5C14.6 17.6 14.5 17.7 14.5 17.8C14.4 18 14.3 18.2 14.2 18.5C14.2 18.6 14.1 18.6 14.1 18.7C14 18.9 13.9 19.2 13.9 19.5V19.6C13.8 19.9 13.8 20.2 13.7 20.4V20.5C13.7 20.6 13.7 20.8 13.6 20.9C13.6 21.1 13.6 21.2 13.5 21.4C13.5 21.7 13.4 22.1 13.4 22.4C13.4 22.6 13.4 22.8 13.4 23C13.4 23.1 13.4 23.1 13.4 23.2C13.4 23.7 13.4 24.3 13.5 24.8C13.5 25 13.5 25.2 13.6 25.3C13.6 25.5 13.7 25.6 13.7 25.8C13.8 26.1 13.8 26.3 13.9 26.6C13.9 26.7 14 26.8 14 26.9C14.1 27.1 14.1 27.3 14.2 27.4C14.3 27.6 14.4 27.9 14.5 28.1C14.7 28.5 14.8 28.8 15 29.1C15 29.1 15 29.2 15.1 29.2C15.2 29.3 15.2 29.4 15.3 29.5C15.5 29.9 15.8 30.2 16.1 30.6C17.4 32.2 19.2 33.5 21.4 34.4C25.1 35.9 28.8 35.9 28.8 35.9H71.2C60.6 38.7 45 38.9 28.6 38.9C27.9 38.9 12.2 38.6 10.3 25.7V25.5C10.3 25.4 10.3 25.3 10.3 25.2V24.9V24.7V24.6C10.2 24 10.2 23.5 10.2 23V22.8C10.2 22.2 10.2 21.5 10.3 20.8C11.7 6.7 27.9 6.5 28.6 6.5C28.9 6.5 67.8 6.5 76.6 6.5C101.5 6.5 117.7 4.1 123.9 1.9Z" fill="white"/>
<path d="M83.5 44.2L85.3 34.2H89.3C91.1 34.2 91.8 34.7999 91.8 35.8999C91.8 36.0999 91.8 36.1999 91.8 36.3999L91.6 37.3999C91.5 38.0999 91.2 38.6 90.1 39C90.9 39.2 91.3 39.8 91.3 40.5C91.3 40.6 91.3 40.6999 91.3 40.7999L91.1 41.7999C90.8 43.1999 90.1 44.2 87.8 44.2H83.5ZM89 40.7C89 40.3 88.7 40.1 88.2 40.1H86.4L86 42.5H87.5C88.2 42.5 88.7 42.3 88.9 41.6L89 41C89 40.9 89 40.8 89 40.7ZM89.4 36.7C89.4 36.6 89.4 36.5 89.4 36.5C89.4 36.2 89.2 36 88.6 36H87.1L86.7 38.3999H88.2C88.9 38.3999 89.2 38.1 89.3 37.6L89.4 36.7Z" fill="white"/>
<path d="M96.0999 41.1H94.5999L94.0999 44.2H91.8999L93.6999 34.2H97.4999C99.6999 34.2 100.7 35 100.7 36.5C100.7 36.7 100.7 36.9 100.6 37.1L100.4 38.2999C100.2 39.4999 99.6999 40.2999 98.4999 40.7999L100.4 44.2H97.8999L96.0999 41.1ZM98.2999 37.2999C98.2999 37.0999 98.2999 36.9999 98.2999 36.8999C98.2999 36.3999 97.9999 36.2 97.1999 36.2H95.3999L94.8999 39.2H96.7999C97.7999 39.2 97.9999 38.8 98.1999 38.1L98.2999 37.2999Z" fill="white"/>
<path d="M103.1 34.2H105.3L103.5 44.2H101.3L103.1 34.2Z" fill="white"/>
<path d="M109.4 44.2001H107.2L108.6 36.1001H105.9L106.2 34.1001H113.8L113.5 36.1001H110.8L109.4 44.2001Z" fill="white"/>
<path d="M114.8 34.2H117L115.2 44.2H113L114.8 34.2Z" fill="white"/>
<path d="M116.9 43.7L117.4 42C118.4 42.3 119.2 42.5 120.1 42.5C121.3 42.5 121.5 42.3 121.7 41.4C121.7 41.2 121.8 41 121.8 40.9C121.8 40.4 121.5 40.3 120.3 40C118.6 39.6 118 39 118 37.8C118 37.5 118 37.1 118.1 36.7C118.5 34.5 119.1 34 121.9 34C122.7 34 123.9 34.2 124.8 34.4L124.4 36.3C123.5 36.1 122.4 36 121.7 36C120.6 36 120.4 36.2 120.3 36.9C120.3 37.1 120.2 37.3 120.2 37.4C120.2 37.9 120.5 38 121.7 38.3C123.6 38.8 124.1 39.3 124.1 40.4C124.1 40.7 124.1 41.1 124 41.5C123.6 43.6 122.9 44.4 120.1 44.4C119.1 44.4 117.7 44.1 116.9 43.7Z" fill="white"/>
<path d="M130.9 40.2001H127.7L127 44.3H124.8L126.6 34.3H128.8L128.1 38.3H131.3L132 34.3H134.2L132.4 44.3H130.2L130.9 40.2001Z" fill="white"/>
<path d="M137.2 42C137.2 41.8 137.2 41.5999 137.3 41.3999L138.1 37.1C138.4 35.3 139.5 34.2 142.2 34.2C143.2 34.2 144.6 34.4 145.3 34.7L144.8 36.6C144 36.4 142.7 36.2 141.9 36.2C140.7 36.2 140.4 36.7 140.2 37.6L139.6 41.1C139.6 41.3 139.6 41.4 139.6 41.6C139.6 42.2 139.9 42.6 140.8 42.6C141.3 42.6 141.9 42.4999 142.3 42.3999L142.8 39.7H144.9L144 43.7C143.1 44.1 141.9 44.2999 140.5 44.2999C138.2 44.4 137.2 43.4 137.2 42Z" fill="white"/>
<path d="M149.6 44.2001H147.4L148.8 36.1001H146.1L146.4 34.1001H154L153.7 36.1001H151L149.6 44.2001Z" fill="white"/>
<path d="M80.7998 55C80.7998 54.8 80.7998 54.5999 80.8998 54.3999L81.6998 50.1C82.0998 48.1 83.2998 47.2 85.6998 47.2C86.6998 47.2 87.5998 47.4 88.5998 47.6L88.0998 49.5C87.2998 49.3 86.1998 49.2 85.4998 49.2C84.3998 49.2 83.9998 49.6 83.7998 50.6L83.1998 54.1C83.1998 54.3 83.1998 54.5 83.1998 54.6C83.1998 55.3 83.5998 55.5 84.3998 55.5C85.0998 55.5 86.0998 55.4 86.9998 55.2L87.0998 57.1C86.2998 57.3 85.1998 57.5 84.0998 57.5C81.6998 57.4 80.7998 56.4 80.7998 55Z" fill="white"/>
<path d="M94.2997 53.2001H91.0997L90.3997 57.3H88.1997L89.9997 47.3H92.1997L91.4997 51.3H94.6997L95.3997 47.3H97.5997L95.7997 57.3H93.5997L94.2997 53.2001Z" fill="white"/>
<path d="M103.4 55.3H99.9997L99.0997 57.3H96.6997L101.5 47.3H104.5L105.9 57.3H103.6L103.4 55.3ZM100.7 53.5001H103.1L102.7 49.1001L100.7 53.5001Z" fill="white"/>
<path d="M115.7 51.8L113.2 56.0001H110.9L110.1 51.8L108.8 57.3H106.6L109 47.3H111.2L112.4 53.8L116.1 47.3H118.3L117.1 57.3H115L115.7 51.8Z" fill="white"/>
<path d="M121.3 54.2001L120.8 57.3H118.6L120.4 47.3H124.2C126.4 47.3 127.4 48.1001 127.4 49.6001C127.4 49.8001 127.4 50.1 127.3 50.4L127.1 51.5001C126.8 53.4001 126 54.3 123.4 54.3H121.3V54.2001ZM125 50.4C125 50.2 125 50.1001 125 50.0001C125 49.5001 124.7 49.2001 124 49.2001H122.1L121.6 52.3H123.4C124.4 52.3 124.6 51.9001 124.8 51.2001L125 50.4Z" fill="white"/>
<path d="M129 47.2H131.2L129.4 57.2H127.2L129 47.2Z" fill="white"/>
<path d="M131.4 54.7C131.4 54.5 131.4 54.4 131.4 54.2L132.1 50.1C132.4 48.2 133.6 47 136.4 47C138.8 47 139.9 48.4 139.9 49.7C139.9 49.8 139.9 50 139.9 50.2L139.2 54.3C138.9 56.2 137.7 57.4 134.8 57.4C132.4 57.4 131.4 56.1 131.4 54.7ZM137.8 50C137.8 49.4 137.4 49 136.3 49C135.2 49 134.6 49.5 134.4 50.3L133.7 54.1C133.7 54.2 133.7 54.3 133.7 54.4C133.7 55 134.1 55.3 135.2 55.3C136.3 55.3 136.9 54.9 137.1 54L137.8 50.2C137.7 50.2 137.8 50.1 137.8 50Z" fill="white"/>
<path d="M143.5 50.4L142.3 57.3H140.1L141.9 47.3H144.6L146.8 54.6001L148.1 47.3H150.3L148.5 57.3H145.8L143.5 50.4Z" fill="white"/>
<path d="M150 56.7L150.5 55C151.5 55.3 152.3 55.5 153.2 55.5C154.4 55.5 154.6 55.3 154.8 54.4C154.8 54.2 154.9 54 154.9 53.9C154.9 53.4 154.6 53.3 153.4 53C151.7 52.6 151.1 52 151.1 50.8C151.1 50.5 151.1 50.1 151.2 49.7C151.6 47.5 152.2 47 155 47C155.8 47 157 47.2 157.9 47.4L157.5 49.3C156.6 49.1 155.5 49 154.8 49C153.7 49 153.5 49.2 153.4 49.9C153.4 50.1 153.3 50.3 153.3 50.4C153.3 50.9 153.6 51 154.8 51.3C156.7 51.8 157.2 52.3 157.2 53.4C157.2 53.7 157.2 54.1 157.1 54.5C156.7 56.6 156 57.4 153.2 57.4C152.3 57.4 150.8 57.1 150 56.7Z" fill="white"/>
<path d="M164.1 53.2001H160.9L160.2 57.3H158L159.8 47.3H162L161.3 51.3H164.5L165.2 47.3H167.4L165.6 57.3H163.4L164.1 53.2001Z" fill="white"/>
<path d="M169 47.2H171.2L169.4 57.2H167.2L169 47.2Z" fill="white"/>
<path d="M174 54.2001L173.5 57.3H171.3L173.1 47.3H176.9C179.1 47.3 180.1 48.1001 180.1 49.6001C180.1 49.8001 180.1 50.1 180 50.4L179.8 51.5001C179.5 53.4001 178.7 54.3 176.1 54.3H174V54.2001ZM177.7 50.4C177.7 50.2 177.7 50.1001 177.7 50.0001C177.7 49.5001 177.4 49.2001 176.7 49.2001H174.8L174.3 52.3H176.1C177.1 52.3 177.3 51.9001 177.5 51.2001L177.7 50.4Z" fill="white"/>
</svg>
