<svg width="40" height="40" viewBox="0 0 40 40" fill="none" xmlns="http://www.w3.org/2000/svg">
<path d="M13.334 29.9999H13.3507M13.334 34.9999H13.3507M20.0007 30.8333H20.0173M20.0007 35.8333H20.0173M26.6673 29.9999H26.684M26.6673 34.9999H26.684M11.6673 24.9999C7.06494 24.9999 3.33398 21.269 3.33398 16.6666C3.33398 12.0642 7.06494 8.33325 11.6673 8.33325C11.7226 8.33325 11.7777 8.33379 11.8327 8.33486C13.3496 5.36592 16.4378 3.33325 20.0007 3.33325C24.1994 3.33325 27.7388 6.15617 28.8244 10.0076C28.9381 10.0025 29.0524 9.99992 29.1673 9.99992C33.3095 9.99992 36.6673 13.3578 36.6673 17.4999C36.6673 21.6421 33.3095 24.9999 29.1673 24.9999C22.9063 24.9999 18.726 24.9999 11.6673 24.9999Z" stroke="url(#paint0_linear_5012_6002)" stroke-width="2" stroke-linecap="round" stroke-linejoin="round"/>
<defs>
<linearGradient id="paint0_linear_5012_6002" x1="3.33398" y1="19.468" x2="36.6673" y2="19.468" gradientUnits="userSpaceOnUse">
<stop stop-color="#D03625"/>
<stop offset="1" stop-color="#912817"/>
</linearGradient>
</defs>
</svg>
