<svg width="86" height="100" viewBox="0 0 86 100" fill="none" xmlns="http://www.w3.org/2000/svg">
<path d="M85.2 57.3C85.2 80.8 66.1 99.9 42.6 99.9C19.1 99.9 0 80.8 0 57.3C0 33.8 5.2 33.9 13.6 26.1L11.3 22C10.9 21.3 10.9 20.3 11.3 19.7C11.7 19.1 12.4 18.6 13.1 18.6H22.8V18.2C22.6 17.5 22.4 16.5 22.6 15.1C22.6 14.9 22.8 14.4 23 13.7C23.7 11.9 25.1 10.8 25.9 10.3L42.6 0L59.5 10.2C62.1 11.9 63.5 15.1 62.6 18.1V18.4H72.2C72.9 18.4 73.6 18.8 74 19.5C74.4 20.2 74.4 21.1 74 21.8L71.7 25.9C80.1 33.7 85.3 44.7 85.3 57.1L85.2 57.3Z" fill="white"/>
<path d="M83.8 57.3C83.8 75.5 72 91 55.6 96.4C52.5 97.4 49.2 98.1 45.8 98.4C44.7 98.4 43.6 98.6 42.6 98.6C41.6 98.6 40.4 98.6 39.4 98.4C36.3 98.1 33.4 97.6 30.5 96.7C13.7 91.5 1.5 75.9 1.5 57.3C1.5 38.7 6.5 35 14.3 27.5L15.5 29.9C13.4 31.9 11.6 34.1 10.1 36.6C6.1 42.8 4.1 50 4.1 57.4C4.1 64.8 5.1 67.7 7.2 72.4C9.1 77 11.9 81.1 15.5 84.6C19.1 88.2 23.2 90.9 27.7 92.9C29.1 93.5 30.5 94 31.9 94.4C34.6 95.1 37.4 95.6 40.2 95.9C41 95.9 41.9 95.9 42.7 95.9C43.5 95.9 44.4 95.9 45.2 95.9C48.3 95.7 51.3 95.2 54.3 94.2C55.5 93.9 56.6 93.5 57.7 93C62.3 91.1 66.4 88.3 69.9 84.7C73.5 81.1 76.2 77 78.2 72.5C80.2 67.8 81.3 62.7 81.3 57.5C81.3 52.3 79.2 43 75.3 36.7C73.6 34.1 71.7 31.8 69.6 29.8L70.9 27.5C78.9 34.9 83.9 45.6 83.9 57.4L83.8 57.3Z" fill="black"/>
<path d="M72 20.2999H60.3L61 17.7999C61.7 15.4 60.7 12.8 58.5 11.5L42.4 1.69995L26.4 11.5C24.2 12.8 23.3 15.4 23.9 17.7999L24.6 20.2H12.9C12.6 20.2 12.4 20.7999 12.6 21.0999L20.9 36.0999C22.1 38.1999 23.7 39.7999 25.5 40.7999L31.1 43.7L31.8 46.4H33C30 36 25 18.4999 25.2 18.5999L34.2 46.5H40.2V39.7999C36.6 38.7999 33.8 35.5 33.8 31.5C33.8 27.5 36.5 24.2 40.2 23.2V7.49995L27.5 13.7999L42.3 4.49995L56.9 13.4C58.1 14.1 58.7 15.6 58.3 17L50.2 46.4H52.8L53.5 43.7L59.1 40.7999C61 39.7999 62.6 38.1999 63.7 36.0999L72.1 20.9C72.3 20.5 72.1 20 71.8 20L72 20.2999ZM21.1 30.5999C20.1 28.5999 19 26.5 18.2 24.4C19.4 26.3 20.4 28.5 21.5 30.4C22.5 32.4 23.6 34.5 24.4 36.5999C23.2 34.5999 22.2 32.5999 21.1 30.5999ZM25.9 24.2999L30.3 39.7999L27.7 38.5C26.4 37.7999 25.3 36.7 24.5 35.2L19.1 24.4H25.9V24.2999ZM55.9 32.2C56.6 29.6 57.5 26.7999 58.5 24.2999C57.9 26.9 57.2 29.8 56.4 32.4C55.6 35 54.8 37.7999 53.8 40.2999C54.4 37.7 55.1 34.9 55.9 32.2ZM60.7 35.2C59.9 36.7 58.7 37.7999 57.5 38.5L54.9 39.7999L59.3 24.2999H66.2L60.8 35.2H60.7ZM66.6 30.4C65.3 32.7 64 35 62.5 37.2999C63.6 34.8999 64.9 32.5 66.2 30.2C67.5 27.9 68.8 25.5999 70.3 23.2999C69.1 25.6999 67.8 28.1 66.6 30.4ZM70.8 21.7C70.8 21.7 64.9 21.5 60.1 21.4V21.0999L70.8 20.7999C71.1 20.7999 71.3 21 71.3 21.2C71.3 21.5 71 21.7 70.8 21.7Z" fill="black"/>
<path d="M70.8002 20.8L60.2002 21.1V21.4001C65.0002 21.6001 70.8002 21.7001 70.8002 21.7001C71.1002 21.7001 71.2002 21.4001 71.2002 21.2001C71.2002 21.0001 71.0002 20.8 70.8002 20.8Z" fill="white"/>
<path d="M42 23.0999H42.5V6.69995L42 6.99995V23.2V23.0999Z" fill="black"/>
<path d="M41.4002 7.19985L40.7002 7.59985V23.2999C41.0002 23.2999 41.2002 23.2999 41.4002 23.0999V7.09985V7.19985Z" fill="black"/>
<path d="M40.6001 40V46.6H41.3001V40.1C41.1001 40.1 40.8001 40.1 40.6001 40.1V40Z" fill="black"/>
<path d="M42.5 40.2H42V46.5999H42.5V40.2Z" fill="black"/>
<path d="M57.1002 13.5999L42.5002 4.69995L27.7002 13.9L40.3002 7.79995V23.4C36.7002 24.4 33.9002 27.7 33.9002 31.7C33.9002 35.7 36.6002 39 40.3002 40V46.6999H40.6002V40.0999C40.9002 40.0999 41.1002 40.0999 41.3002 40.2999V46.6999H41.9002V40.2999H42.4002V46.6999H50.3002L58.4002 17.2999C58.9002 15.9 58.4002 14.4 57.1002 13.7V13.5999ZM42.0002 6.89995L42.5002 6.59995V23.0999H42.0002V6.89995ZM40.6002 7.59995L41.3002 7.19995V23.2C41.0002 23.2 40.8002 23.2 40.6002 23.4V7.69995V7.59995ZM42.5002 38.9C42.1002 38.9 41.7002 38.9 41.3002 38.9C37.9002 38.3 35.3002 35.2999 35.3002 31.7999C35.3002 28.2999 37.9002 25.3 41.3002 24.7C41.7002 24.7 42.1002 24.7 42.5002 24.7C46.5002 24.7 49.8002 27.9 49.8002 32C49.8002 36.1 46.5002 39.0999 42.5002 39.0999V38.9ZM50.9002 41.5C52.7002 33.5 55.0002 25.4 57.5002 17.5C55.7002 25.6 53.5002 33.6 50.9002 41.5Z" fill="white"/>
<path d="M39.4998 31.6999C39.4998 28.9999 40.1998 26.4999 41.2998 24.5999C37.8998 25.1999 35.2998 28.1999 35.2998 31.6999C35.2998 35.1999 37.8998 38.1999 41.2998 38.7999C40.0998 36.7999 39.4998 34.2999 39.4998 31.6999Z" fill="#AD0F0A"/>
<path d="M42.5 24.4C42.1 24.4 41.7 24.4 41.3 24.4C40.2 26.4 39.5 28.9 39.5 31.5C39.5 34.1 40.2 36.6999 41.3 38.5999C41.7 38.5999 42.1 38.5999 42.5 38.5999C46.5 38.5999 49.8 35.4 49.8 31.2999C49.8 27.1999 46.5 24.2 42.5 24.2V24.4ZM45.7 27.7C44.5 26.7 43.1 25.9999 41.7 25.7999C43.3 25.5999 44.9 26.0999 46.2 27.0999C47.5 28.1999 48.2 29.6999 48.3 31.2999C47.8 29.9999 47 28.7 45.7 27.7Z" fill="#E20613"/>
<path d="M45.7002 27.7C46.9002 28.7 47.8002 29.9 48.3002 31.3C48.3002 29.7 47.6002 28.2 46.2002 27.1C44.9002 26 43.3002 25.6 41.7002 25.8C43.1002 26.1 44.5002 26.7 45.7002 27.7Z" fill="white"/>
<path d="M34.3 46.6H33.3C30.3 36.2 25.3 18.7 25.5 18.8L34.3 46.6Z" fill="white"/>
<path d="M18.2002 24.3C19.1002 26.4 20.1002 28.5 21.1002 30.5C22.1002 32.5 23.3002 34.6 24.4002 36.5C23.5002 34.4 22.5002 32.3 21.5002 30.3C20.4002 28.3 19.3002 26.3 18.2002 24.3Z" fill="white"/>
<path d="M56.3998 32.4001C57.0998 29.8001 57.8998 27 58.4998 24.3C57.5998 26.9 56.7998 29.6001 55.8998 32.2001C55.1998 34.8001 54.3998 37.6 53.7998 40.3C54.7998 37.7 55.5998 35.0001 56.3998 32.4001Z" fill="white"/>
<path d="M62.3999 37.3C63.8999 35.1 65.1999 32.8001 66.4999 30.4001C67.6999 28.1001 69.0999 25.7 70.1999 23.3C68.6999 25.5 67.3999 27.8001 66.0999 30.2001C64.7999 32.5001 63.4999 34.9 62.3999 37.3Z" fill="white"/>
<path d="M57.6 17.5C55 25.3 52.8 33.4 51 41.5C53.6 33.7 55.8 25.6 57.6 17.5Z" fill="black"/>
<path d="M75.5999 58.6H73.9999V49.3H70.5999V56.9L66.1999 50.6L65.2999 49.3H64.4999H62.8999H60.8999L62.8999 52.2L63.7999 53.4L66.1999 56.9L63.7999 53.4L66.1999 56.9L70.5999 63.2V67.4H73.9999V62.8H75.5999V58.6Z" fill="#E20613"/>
<path d="M41.0998 55.2H37.7998V67.4H41.0998V55.2Z" fill="#E20613"/>
<path d="M62.8999 54.8V67.4H66.1999V59.5L62.8999 54.8Z" fill="#E20613"/>
<path d="M20.3999 49.4L10.3999 49.3L13.2999 53.4H16.5999V63.3H11.4999V67.4H18.2999L19.9999 65.3V53.3H23.1999L20.3999 49.4Z" fill="#E20613"/>
<path d="M22.1001 49.3L25.1001 53.4H31.4001V58.6H28.1001V55.2H24.7001V58.6H23.5001V62.8H24.7001V67.4H28.1001V62.8H31.4001V67.4H34.7001V67.1V62.8V58.6V51.7L33.0001 49.3H22.1001Z" fill="#E20613"/>
<path d="M48 49.3L50.9 53.4H57.1V58.6H53.9V55.2H50.6V58.6H49.4V62.8H50.6V67.4H53.9V62.8H57.1V67.4H60.5V67.1V62.8V58.6V51.7L58.9 49.3H48Z" fill="#E20613"/>
<path d="M35.1997 49.3L38.0997 53.4H44.3997V58.6H41.7997L44.7997 62.8H46.0997L47.6997 60.7V51.7L46.0997 49.3H35.1997Z" fill="#E20613"/>
<path d="M53.9001 76.3H50.6001V88.5H53.9001V76.3Z" fill="#E20613"/>
<path d="M58.9 70.5H48L50.9 74.6H57.1V79.8H54.6L57.5 83.9H58.9L60.5 81.9V72.8L58.9 70.5Z" fill="#E20613"/>
<path d="M35.3001 74.6L32.4001 70.5H28.5001H25.1001H22.1001L25.1001 74.6V86.2L26.7001 88.6H35.3001V84.4H28.5001V74.6H35.3001Z" fill="#E20613"/>
<path d="M44.4002 83.5V84.4H41.2002V72.8L39.5002 70.5H35.2002L37.8002 74.2V86.2L39.5002 88.6H46.1002L47.1002 87.3L47.7002 86.5V75.2L44.4002 70.5V83.5Z" fill="#E20613"/>
</svg>
