<svg width="90" height="34" viewBox="0 0 90 34" fill="none" xmlns="http://www.w3.org/2000/svg">
<path d="M4.5103 32.6174V30.867C4.5103 30.6054 4.5103 30.0013 4.5103 29.8158C4.43895 29.9918 4.29625 30.3343 4.17734 30.6054L3.22604 32.7268L2.27474 30.6054C2.15107 30.3343 2.00838 29.9918 1.93703 29.8158C1.93703 30.0013 1.93703 30.6054 1.93703 30.867V32.6174H1V27.8609H1.918L2.9026 30.0061C3.02151 30.2724 3.16421 30.6339 3.22604 30.8052C3.28788 30.6292 3.42581 30.282 3.54948 30.0061L4.50078 27.8466H5.45208V32.6031L4.5103 32.6174ZM9.1241 32.6935C7.82082 32.6935 7.05502 31.6851 7.05502 30.2344C7.05502 28.7837 7.82082 27.7705 9.1241 27.7705C10.4274 27.7705 11.1979 28.7789 11.1979 30.2344C11.1979 31.6899 10.4274 32.6935 9.1241 32.6935ZM9.1241 28.7171C8.35355 28.7171 8.03486 29.383 8.03486 30.2344C8.03486 31.0858 8.35355 31.747 9.1241 31.747C9.89465 31.747 10.2133 31.0858 10.2133 30.2344C10.2133 29.383 9.89465 28.7171 9.1241 28.7171ZM14.6892 28.7884V32.6174H13.7379V28.7884H12.3633V27.8371H16.0591V28.7884H14.6892ZM19.2935 32.6935C17.995 32.6935 17.2244 31.6851 17.2244 30.2344C17.2244 28.7837 17.995 27.7705 19.2935 27.7705C20.592 27.7705 21.3673 28.7789 21.3673 30.2344C21.3673 31.6899 20.5968 32.6935 19.2935 32.6935ZM19.2935 28.7171C18.5229 28.7171 18.2043 29.383 18.2043 30.2344C18.2043 31.0858 18.5229 31.747 19.2935 31.747C20.0641 31.747 20.3875 31.0858 20.3875 30.2344C20.3875 29.383 20.0641 28.7171 19.2935 28.7171ZM25.7338 32.6174L24.8824 30.9003H23.9311V32.6174H22.9798V27.8609H25.2011C26.1 27.8609 26.8468 28.3603 26.8468 29.3735C26.879 29.6803 26.8056 29.9889 26.6387 30.2483C26.4718 30.5078 26.2214 30.7025 25.9288 30.8004L26.8468 32.6554L25.7338 32.6174ZM25.1535 28.7741H23.9073V30.0013H25.1535C25.5959 30.0013 25.8337 29.7968 25.8337 29.383C25.8337 28.9692 25.5768 28.7741 25.1535 28.7741ZM29.91 32.6935C29.557 32.7048 29.2065 32.6312 28.8878 32.4789C28.5692 32.3266 28.2917 32.1001 28.0788 31.8183L28.7637 31.2047C28.9136 31.3814 29.1013 31.5223 29.3128 31.617C29.5244 31.7117 29.7544 31.7577 29.9861 31.7517C30.5521 31.7517 30.8185 31.5947 30.8185 31.2333C30.8185 30.8718 30.652 30.7909 29.753 30.5864C28.8541 30.3818 28.2595 30.1107 28.2595 29.1594C28.2595 28.2937 29.0253 27.761 29.9623 27.761C30.2894 27.7542 30.6141 27.8178 30.9145 27.9475C31.2148 28.0772 31.4838 28.2699 31.7032 28.5125L31.0135 29.1784C30.8758 29.0281 30.7082 28.9081 30.5215 28.8262C30.3347 28.7443 30.1329 28.7022 29.929 28.7028C29.4201 28.7028 29.2489 28.9216 29.2489 29.1356C29.2489 29.4353 29.4534 29.5304 30.2002 29.7064C30.9469 29.8824 31.7936 30.144 31.7936 31.1762C31.8031 32.0799 31.2323 32.6935 29.929 32.6935H29.91ZM35.361 30.9288H34.3288V32.6174H33.3775V27.8609H35.4608C36.3598 27.8609 37.1066 28.3603 37.1066 29.3735C37.1066 30.4627 36.3693 30.9288 35.38 30.9288H35.361ZM35.4085 28.7741H34.3288V30.0013H35.4418C35.8842 30.0013 36.122 29.7968 36.122 29.383C36.122 28.9692 35.8509 28.7741 35.4275 28.7741H35.4085ZM40.4789 32.6935C39.1757 32.6935 38.4051 31.6851 38.4051 30.2344C38.4051 28.7837 39.1757 27.7705 40.4789 27.7705C41.7822 27.7705 42.548 28.7789 42.548 30.2344C42.548 31.6899 41.7632 32.6935 40.4789 32.6935ZM40.4789 28.7171C39.7084 28.7171 39.385 29.383 39.385 30.2344C39.385 31.0858 39.7084 31.747 40.4789 31.747C41.2495 31.747 41.5682 31.0858 41.5682 30.2344C41.5682 29.383 41.2352 28.7171 40.4789 28.7171ZM46.9002 32.6174L46.0488 30.9003H45.0975V32.6174H44.1462V27.8609H46.3675C47.2712 27.8609 48.0132 28.3603 48.0132 29.3735C48.0448 29.6795 47.9717 29.9873 47.8059 30.2465C47.64 30.5056 47.3912 30.7009 47.1 30.8004L48.0132 32.6554L46.9002 32.6174ZM46.3199 28.7741H45.0737V30.0013H46.3199C46.7623 30.0013 47.0001 29.7968 47.0001 29.383C47.0001 28.9692 46.7433 28.7741 46.3199 28.7741ZM51.5996 28.7741V32.6031H50.6483V28.7884H49.2785V27.8371H52.9695V28.7884L51.5996 28.7741ZM56.0327 32.6792C55.6777 32.6957 55.324 32.6259 55.0018 32.476C54.6796 32.3261 54.3985 32.1004 54.1824 31.8183L54.8674 31.2047C55.0171 31.3817 55.2047 31.5228 55.4163 31.6175C55.6279 31.7121 55.858 31.758 56.0898 31.7517C56.6558 31.7517 56.9222 31.5947 56.9222 31.2333C56.9222 30.8718 56.7557 30.7909 55.8567 30.5864C54.9577 30.3818 54.3632 30.1107 54.3632 29.1594C54.3632 28.2937 55.129 27.761 56.066 27.761C56.3931 27.7542 56.7178 27.8178 57.0181 27.9475C57.3185 28.0772 57.5875 28.2699 57.8069 28.5125L57.1267 29.188C56.989 29.0376 56.8214 28.9176 56.6347 28.8357C56.4479 28.7538 56.2461 28.7118 56.0422 28.7123C55.5333 28.7123 55.362 28.9311 55.362 29.1452C55.362 29.4448 55.5666 29.5399 56.3133 29.7159C57.0601 29.8919 57.9068 30.1535 57.9068 31.1857C57.9068 32.0799 57.336 32.6935 56.0327 32.6935V32.6792ZM64.8988 32.6792C63.6479 32.6792 62.8107 31.7279 62.8107 30.2201C62.8107 28.7123 63.6859 27.7563 64.9321 27.7563C65.3241 27.7289 65.714 27.8328 66.0404 28.0515C66.3668 28.2703 66.6111 28.5914 66.7348 28.9644L65.8311 29.3402C65.7666 29.1516 65.6427 28.989 65.4781 28.8767C65.3135 28.7644 65.1169 28.7084 64.9178 28.7171C64.2044 28.7171 63.7953 29.3449 63.7953 30.2344C63.7953 31.1239 64.2091 31.7612 64.9226 31.7612C65.6361 31.7612 65.8026 31.4521 65.8739 31.0382H65.1176V30.144H66.8252V30.7719C66.8445 31.0296 66.8078 31.2884 66.7178 31.5306C66.6277 31.7728 66.4864 31.9927 66.3034 32.1752C66.1205 32.3577 65.9002 32.4985 65.6578 32.5879C65.4154 32.6774 65.1565 32.7134 64.8988 32.6935V32.6792ZM71.2725 32.6031L70.4449 30.9003H69.4936V32.6174H68.5423V27.8609H70.7636C71.6626 27.8609 72.4046 28.3603 72.4046 29.3735C72.437 29.6797 72.3643 29.9878 72.1983 30.2472C72.0323 30.5065 71.783 30.7016 71.4913 30.8004L72.4046 32.6554L71.2725 32.6031ZM70.7065 28.7599H69.4603V29.9871H70.7065C71.1536 29.9871 71.3914 29.7825 71.3914 29.3687C71.3914 28.9549 71.1298 28.7741 70.7065 28.7741V28.7599ZM75.853 32.6792C74.5545 32.6792 73.784 31.6709 73.784 30.2201C73.784 28.7694 74.5545 27.7563 75.853 27.7563C77.1516 27.7563 77.9269 28.7646 77.9269 30.2201C77.9269 31.6756 77.1563 32.6935 75.853 32.6935V32.6792ZM75.853 28.7028C75.0825 28.7028 74.7638 29.3687 74.7638 30.2201C74.7638 31.0715 75.0825 31.7327 75.853 31.7327C76.6236 31.7327 76.947 31.0715 76.947 30.2201C76.947 29.3687 76.6283 28.7171 75.853 28.7171V28.7028ZM81.4657 32.6792C80.3099 32.6792 79.5346 31.9039 79.5346 30.5103V27.8466H80.4859V30.5103C80.4859 31.2761 80.8521 31.7612 81.4372 31.7612C82.0222 31.7612 82.417 31.2856 82.417 30.5245V27.8466H83.3683V30.5103C83.3968 31.8944 82.6786 32.6935 81.4657 32.6935V32.6792ZM87.2686 30.9146H86.2222V32.6031H85.2709V27.8466H87.359C88.258 27.8466 89 28.3461 89 29.3592C88.9952 30.4627 88.258 30.9288 87.2686 30.9288V30.9146ZM87.3162 28.7599H86.2222V29.9871H87.3305C87.7776 29.9871 88.0154 29.7825 88.0154 29.3687C88.0154 28.9549 87.7395 28.7741 87.3162 28.7741V28.7599Z" fill="#3E3F40"/>
<path d="M83.4165 1.07733C82.2745 0.679247 81.0727 0.479759 79.8634 0.487523H71.5823C71.1923 0.516741 70.809 0.604947 70.4455 0.74913C70.001 0.929303 69.5858 1.17457 69.2135 1.47687C68.8609 1.76272 68.5601 2.10702 68.3241 2.49477C68.1065 2.87864 67.9964 3.31407 68.0054 3.75524V8.00755C67.9993 7.5655 68.1127 7.13001 68.3336 6.74708C68.5681 6.36108 68.8674 6.01836 69.2183 5.73394C69.5871 5.42907 70.0011 5.18354 70.4455 5.0062C70.9314 4.81511 71.4502 4.72138 71.9723 4.73032H79.8634C80.3772 4.72616 80.8877 4.81312 81.3712 4.98717C81.8054 5.14215 82.2106 5.36885 82.5698 5.65784L86.2608 2.61843C85.4064 1.94804 84.4447 1.427 83.4165 1.07733Z" fill="url(#paint0_linear_5098_588)"/>
<path d="M88.2775 5.08192C87.8649 4.29249 87.3157 3.58233 86.6556 2.98431C86.5462 2.88442 86.4415 2.77978 86.3274 2.68465L86.2608 2.63232L82.5697 5.65746L82.6078 5.686C82.9446 5.982 83.2249 6.33653 83.4354 6.73243C83.6306 7.12386 83.7316 7.5555 83.7303 7.9929V14.495C83.7349 14.9341 83.6372 15.3681 83.4448 15.7628C83.2524 16.1574 82.9707 16.5018 82.6221 16.7686C81.8414 17.3935 80.8625 17.7176 79.8633 17.6819H85.1287C86.1294 17.7174 87.1098 17.3935 87.8922 16.7686C88.2085 16.5238 88.4697 16.2151 88.659 15.8628C88.8483 15.5104 88.9614 15.1222 88.991 14.7233C88.991 14.6472 88.991 14.5711 88.991 14.495V8.00717C88.9965 6.98835 88.7515 5.98381 88.2775 5.08192Z" fill="url(#paint1_linear_5098_588)"/>
<path d="M85.1288 17.6819H71.782C71.3308 17.6648 70.8841 17.5848 70.455 17.4441C69.9943 17.293 69.5643 17.0611 69.185 16.7592C68.8291 16.4853 68.5343 16.1403 68.3193 15.746C68.1371 15.4136 68.0315 15.0448 68.0101 14.6663C68.0101 14.6092 68.0101 14.5569 68.0101 14.4998V3.7549C68.004 3.31285 68.1174 2.87736 68.3383 2.49443C68.5743 2.10669 68.8752 1.76238 69.2278 1.47654C69.5957 1.17544 70.006 0.930221 70.4455 0.748794C70.8062 0.60717 71.1862 0.520586 71.5727 0.491943C70.4978 0.524649 69.4343 0.721957 68.4192 1.07699C67.3624 1.43873 66.3772 1.98286 65.5082 2.68469C64.7031 3.33646 64.0395 4.14573 63.558 5.06294C63.0778 5.96966 62.8294 6.98116 62.8351 8.00721V14.4951C62.8311 15.5143 63.0777 16.5189 63.5533 17.4203C64.0347 18.3375 64.6983 19.1468 65.5035 19.7986C66.3724 20.5004 67.3576 21.0445 68.4144 21.4063C69.5564 21.8044 70.7582 22.0038 71.9675 21.9961H79.8633C81.0727 22.0038 82.2744 21.8044 83.4164 21.4063C84.4732 21.0445 85.4584 20.5004 86.3274 19.7986C87.1335 19.1478 87.7973 18.3383 88.2776 17.4203C88.7152 16.5865 88.9591 15.6646 88.991 14.7234C88.9615 15.1223 88.8483 15.5105 88.6591 15.8628C88.4698 16.2152 88.2085 16.5238 87.8923 16.7687C87.1098 17.3935 86.1295 17.7175 85.1288 17.6819Z" fill="#E31C19"/>
<path d="M8.88159 0.425382C7.8617 0.416714 6.84746 0.577449 5.88023 0.901031C4.97457 1.208 4.12832 1.66814 3.37832 2.26139C2.66975 2.82002 2.08093 3.51561 1.64695 4.30668C1.30857 4.9307 1.09986 5.6167 1.03336 6.32344C1.01028 6.51918 0.999162 6.71615 1.00007 6.91325C0.999032 7.10718 1.01015 7.30099 1.03336 7.49354C1.09999 8.1936 1.30706 8.87304 1.64219 9.49127C2.08073 10.282 2.67066 10.9786 3.37832 11.5413C4.12678 12.1369 4.97346 12.5973 5.88023 12.9017C6.85145 13.2386 7.87261 13.4091 8.90061 13.4059H19.5076C20.1835 13.3914 20.8425 13.6172 21.3674 14.0432C21.6077 14.2165 21.8042 14.4435 21.9412 14.706C22.0783 14.9686 22.1522 15.2596 22.157 15.5558C22.1542 15.8439 22.0755 16.1261 21.9287 16.3739C21.7716 16.6405 21.5688 16.8772 21.3293 17.0731C21.0835 17.2935 20.8041 17.4733 20.5017 17.6059C20.183 17.7449 19.8409 17.8224 19.4933 17.8342H1.03336V22.0151H19.5504C20.5662 22.0321 21.5772 21.8711 22.5375 21.5395C23.4468 21.2354 24.2954 20.7733 25.0442 20.1744C25.7414 19.6144 26.3175 18.9186 26.7375 18.1291C27.156 17.3348 27.3701 16.4488 27.3606 15.551C27.3654 14.6826 27.1649 13.8254 26.7755 13.0491C26.3711 12.2602 25.8132 11.56 25.1345 10.9896C24.3949 10.3648 23.5469 9.88114 22.6326 9.56262C21.6199 9.21328 20.555 9.03955 19.4838 9.04891H8.88159C8.23814 9.04596 7.61212 8.83951 7.09314 8.45911C6.83447 8.28917 6.62296 8.05659 6.47827 7.783C6.33357 7.50941 6.26038 7.20368 6.26551 6.89422C6.26387 6.57772 6.35301 6.26739 6.52236 6C6.70048 5.73705 6.92443 5.50827 7.18352 5.32458C7.43853 5.13006 7.72486 4.98046 8.03017 4.88222C8.71759 4.67546 9.43414 4.58228 10.1516 4.60634H27.275V0.425382H8.88159Z" fill="#E31C19"/>
<path d="M54.3065 14.2524C55.4838 13.6401 56.4943 12.7504 57.2508 11.6601C57.6068 11.1368 57.8855 10.5649 58.0785 9.96208C58.2725 9.39065 58.3722 8.79139 58.3734 8.1879V7.58383C58.3736 6.70707 58.1649 5.84289 57.7645 5.06288C57.3478 4.23778 56.7873 3.49362 56.1093 2.86538C55.3748 2.18477 54.5284 1.63606 53.6073 1.24341C52.6228 0.814851 51.5786 0.538972 50.5109 0.425293L32.165 0.425293V4.61101H49.2218C49.732 4.60982 50.2382 4.7017 50.7154 4.88213C51.1765 5.05178 51.6059 5.29779 51.9854 5.60988C52.343 5.90041 52.6431 6.25534 52.8701 6.65631C53.0847 7.02995 53.1994 7.45261 53.203 7.88349C53.2082 8.32815 53.1002 8.76683 52.8891 9.15823C52.6713 9.55187 52.377 9.89796 52.0234 10.1761C51.6416 10.473 51.2122 10.7029 50.7534 10.8563C50.2596 11.0204 49.7422 11.1023 49.2218 11.0989H37.4781C34.548 11.0989 32.1746 13.049 32.1746 15.4606V22.015H37.4781V17.1444C37.4781 16.2216 38.4008 15.4653 39.5281 15.4653H49.2218L52.7226 22.015H58.5018L54.3065 14.2524Z" fill="#E31C19"/>
<defs>
<linearGradient id="paint0_linear_5098_588" x1="68.0054" y1="4.24516" x2="86.2608" y2="4.24516" gradientUnits="userSpaceOnUse">
<stop stop-color="#52100A"/>
<stop offset="0.05" stop-color="#67120C"/>
<stop offset="0.21" stop-color="#9C1612"/>
<stop offset="0.34" stop-color="#C31916"/>
<stop offset="0.44" stop-color="#DA1B18"/>
<stop offset="0.51" stop-color="#E31C19"/>
</linearGradient>
<linearGradient id="paint1_linear_5098_588" x1="84.4295" y1="17.6819" x2="84.4295" y2="2.63232" gradientUnits="userSpaceOnUse">
<stop stop-color="#52100A"/>
<stop offset="0.05" stop-color="#67120C"/>
<stop offset="0.21" stop-color="#9C1612"/>
<stop offset="0.34" stop-color="#C31916"/>
<stop offset="0.44" stop-color="#DA1B18"/>
<stop offset="0.51" stop-color="#E31C19"/>
</linearGradient>
</defs>
</svg>
