<svg width="36" height="35" viewBox="0 0 36 35" fill="none" xmlns="http://www.w3.org/2000/svg">
<path d="M19.4224 21.3303L27.5534 33.2557M15.6845 21.3303L7.55341 33.2557M20.8867 18.5892C20.8867 20.4301 19.3944 21.9225 17.5534 21.9225C15.7125 21.9225 14.2201 20.4301 14.2201 18.5892C14.2201 16.7482 15.7125 15.2558 17.5534 15.2558C19.3944 15.2558 20.8867 16.7482 20.8867 18.5892ZM26.1343 4.14294L6.49377 9.40559C6.04296 9.52639 5.81756 9.58678 5.66888 9.72065C5.5381 9.83841 5.44795 9.99454 5.41136 10.1667C5.36977 10.3624 5.43017 10.5878 5.55096 11.0386L7.0176 16.5122C7.13839 16.963 7.19879 17.1884 7.33266 17.3371C7.45042 17.4678 7.60655 17.558 7.77869 17.5946C7.97438 17.6362 8.19979 17.5758 8.65059 17.455L28.2911 12.1923L26.1343 4.14294ZM33.8741 12.4218C32.0708 12.905 31.1692 13.1466 30.3864 12.9802C29.6979 12.8339 29.0733 12.4733 28.6023 11.9502C28.0668 11.3554 27.8253 10.4538 27.3421 8.65059L27.0833 7.68467C26.6001 5.88144 26.3585 4.97982 26.5249 4.19705C26.6712 3.5085 27.0318 2.88396 27.5549 2.41294C28.1497 1.87746 29.0513 1.63587 30.8545 1.15269C31.3053 1.0319 31.5307 0.971504 31.7264 1.0131C31.8985 1.04969 32.0547 1.13983 32.1724 1.27061C32.3063 1.41929 32.3667 1.6447 32.4875 2.0955L34.8169 10.7888C34.9377 11.2396 34.9981 11.465 34.9565 11.6607C34.9199 11.8329 34.8297 11.989 34.6989 12.1068C34.5503 12.2406 34.3249 12.301 33.8741 12.4218ZM3.3896 17.1392L5.64343 16.5353C6.09423 16.4145 6.31964 16.3541 6.46831 16.2202C6.5991 16.1025 6.68924 15.9463 6.72583 15.7742C6.76743 15.5785 6.70703 15.3531 6.58623 14.9023L5.98232 12.6485C5.86153 12.1977 5.80113 11.9723 5.66726 11.8236C5.54951 11.6928 5.39337 11.6026 5.22124 11.5661C5.02554 11.5245 4.80014 11.5849 4.34933 11.7057L2.0955 12.3096C1.6447 12.4304 1.41929 12.4908 1.27061 12.6246C1.13983 12.7424 1.04969 12.8985 1.0131 13.0707C0.971504 13.2663 1.0319 13.4917 1.15269 13.9426L1.75661 16.1964C1.8774 16.6472 1.9378 16.8726 2.07167 17.0213C2.18942 17.1521 2.34556 17.2422 2.51769 17.2788C2.71339 17.3204 2.93879 17.26 3.3896 17.1392Z" stroke="url(#paint0_linear_5229_3132)" stroke-width="2" stroke-linecap="round" stroke-linejoin="round"/>
<defs>
<linearGradient id="paint0_linear_5229_3132" x1="1" y1="17.0135" x2="34.9696" y2="17.0135" gradientUnits="userSpaceOnUse">
<stop stop-color="#D03625"/>
<stop offset="1" stop-color="#912817"/>
</linearGradient>
</defs>
</svg>
