<svg width="79" height="78" viewBox="0 0 79 78" fill="none" xmlns="http://www.w3.org/2000/svg">
<path d="M53.8698 75.327C53.8672 76.2157 53.8716 77.1096 53.8698 77.9982H51.1987C51.1969 77.1096 51.2013 76.2157 51.1987 75.327C52.0873 75.3288 52.9812 75.3244 53.8698 75.327Z" fill="black"/>
<path d="M75.4182 37.6634C75.4182 38.552 75.4208 39.446 75.4182 40.3346C74.5287 40.3302 73.6356 40.3373 72.7461 40.3346V37.6625C73.6356 37.6608 74.5287 37.6652 75.4182 37.6625V37.6634Z" fill="black"/>
<path d="M59.3017 69.9847C61.971 69.9705 64.6458 69.9954 67.3161 69.9847C67.3161 70.8742 67.3161 71.7673 67.3161 72.6568C66.4266 72.6613 65.5335 72.6541 64.644 72.6568C64.644 73.5463 64.644 74.4394 64.644 75.3289H61.9728V72.6577C61.0842 72.6559 60.1903 72.6604 59.3017 72.6577C59.3034 71.7691 59.299 70.8751 59.3017 69.9865V69.9847Z" fill="black"/>
<path d="M37.7552 8.01352C36.8666 8.01797 35.9726 8.00995 35.084 8.01352V10.6402L34.9504 10.7737H32.3238V13.4449H26.9814V10.6847H29.6526V0H43.0975V2.67117H48.5289V5.34234H43.0975V10.6847H45.7687V8.14707L45.9022 8.01352H48.5289V10.6402L48.3953 10.7737H45.7687C45.7669 11.6623 45.7714 12.5563 45.7687 13.4449C47.578 13.4476 49.3908 13.4476 51.2001 13.4449C51.1983 11.6356 51.2019 9.8219 51.2001 8.01263C52.0896 8.00995 52.9826 8.01797 53.8721 8.01263V5.34145H56.5433V8.01263C55.6547 8.01619 54.7607 8.00817 53.8721 8.01263V10.6838H56.5433V13.444C54.7643 13.4458 52.98 13.4413 51.201 13.444C51.2027 15.223 51.2001 17.0073 51.201 18.7864H53.8721V16.1152H56.5433V21.5466H53.8721V24.2177H56.5433C56.5469 25.1063 56.5389 26.0003 56.5433 26.8889C54.7643 26.8978 52.98 26.8827 51.2001 26.8889C51.2001 27.7784 51.2001 28.6715 51.2001 29.561C52.0887 29.5654 52.9826 29.5574 53.8712 29.561V32.2321H51.2001V29.561C50.3115 29.5565 49.4175 29.5645 48.5289 29.561V26.8898C47.61 26.888 46.6876 26.8925 45.7687 26.8898C45.7687 26.0003 45.7687 25.1072 45.7687 24.2177C44.8792 24.2177 43.9861 24.2204 43.0966 24.2177C43.0895 21.5181 43.102 18.814 43.0966 16.1143C43.9861 16.1143 44.8792 16.1161 45.7687 16.1143C45.7705 17.8933 45.7678 19.6776 45.7687 21.4566H48.5289V16.1143C47.61 16.1152 46.6876 16.1125 45.7687 16.1143C45.7687 15.2257 45.766 14.3317 45.7687 13.4431C43.9897 13.4404 42.2053 13.4449 40.4263 13.4431V10.7719H37.7552C37.7561 9.85306 37.7534 8.93062 37.7552 8.01173C38.6438 8.00728 39.5377 8.0153 40.4263 8.01173V5.34056H37.7552C37.7543 6.22917 37.757 7.12312 37.7552 8.01173V8.01352ZM34.995 2.67117H32.3238V5.34234H34.995V2.67117ZM51.2001 21.5475H48.5289V24.2186H51.2001V21.5475Z" fill="black"/>
<path d="M13.5356 26.8898V29.561H10.7754V26.8898C11.6943 26.8907 12.6167 26.888 13.5356 26.8898Z" fill="black"/>
<path d="M45.7683 40.3345C45.7728 41.224 45.7657 42.117 45.7683 43.0065C46.6872 43.0048 47.6106 43.0083 48.5294 43.0065C48.5294 43.3947 48.5953 45.6243 48.4458 45.7276C46.665 45.8024 44.8788 45.7614 43.0981 45.7667C43.0936 43.9575 43.1016 42.1437 43.0981 40.3345C43.9876 40.3345 44.8806 40.3363 45.7701 40.3345H45.7683Z" fill="black"/>
<path d="M75.418 34.9924H78.0891V37.6636C77.2005 37.6654 76.3066 37.6609 75.418 37.6636C75.418 36.775 75.4197 35.881 75.418 34.9924Z" fill="black"/>
<path d="M26.9815 26.8897C26.986 25.0804 26.9779 23.2676 26.9815 21.4583H32.3239V16.116H35.0841V21.4138L34.9505 21.5473H32.3239V24.2185H29.6527V26.8897H26.9815C26.9788 27.7783 26.9833 28.6723 26.9815 29.5609H24.3103V34.9922H26.8479L26.9815 34.8587V32.232H29.6527V29.5609H32.3239V26.8897H34.995V24.2185C37.6947 24.2239 40.3979 24.2114 43.0976 24.2185C43.0994 25.108 43.0967 26.0011 43.0976 26.8906C43.9871 26.8915 44.8801 26.887 45.7696 26.8906V29.5618H43.0985V34.8596L43.232 34.9931H45.7696V32.3665L45.9032 32.2329H48.3963L48.5299 32.3665V37.6643C49.4185 37.6679 50.3124 37.6599 51.201 37.6643C51.1966 39.4433 51.2037 41.2277 51.201 43.0075C50.3115 43.0075 49.4185 43.0058 48.529 43.0075C48.529 42.118 48.529 41.225 48.529 40.3355C47.6101 40.3373 46.6867 40.3337 45.7679 40.3355C45.7634 39.4469 45.7714 38.5529 45.7679 37.6643H40.4255V34.9931H37.7543V32.3665L37.6208 32.2329H32.4565L32.323 32.3665V34.8596L32.4565 34.9931H35.0832V37.5308L34.9496 37.6643H32.323V40.3355H34.9496L35.0832 40.469V45.7669C37.7526 45.7615 40.4273 45.774 43.0967 45.7669C43.0994 46.6555 43.0949 47.5494 43.0967 48.438H45.7679V51.1092H43.0967V56.4516H45.7679V53.9139C45.8462 53.7866 45.945 53.7911 46.075 53.7759C46.7793 53.6931 47.7819 53.7848 48.5281 53.7804V51.1092H51.1992V53.7804C50.3106 53.7839 49.4167 53.775 48.5281 53.7804C48.5281 54.6699 48.5281 55.5621 48.5281 56.4516H53.8704V53.7804H59.3018V51.1092H64.6441V48.438H59.3018V45.7669H61.973V37.6643C61.0844 37.6625 60.1904 37.667 59.3018 37.6643C59.3045 36.7757 59.3071 35.8818 59.3018 34.9931C62.8616 34.9887 66.4267 34.9967 69.9865 34.9931V32.2329H67.3153V29.5618H64.6441V32.2329H61.973V29.5618H56.5416C56.538 28.6731 56.546 27.7792 56.5416 26.8906C57.4605 26.8861 58.3829 26.8941 59.3018 26.8906V21.4592H72.6131L72.7467 21.5928V24.2194H78.089V26.8906H70.0755V32.2329H75.4179C75.4197 33.1518 75.4152 34.0743 75.4179 34.9931C74.5284 34.9931 73.6353 34.9931 72.7458 34.9931C72.7458 35.8826 72.7458 36.7757 72.7458 37.6652C70.0461 37.6697 67.3429 37.6625 64.6432 37.6652V40.3364H69.9411L70.0746 40.4699V43.0075H75.417C75.4188 42.1189 75.4143 41.225 75.417 40.3364C76.3056 40.3408 77.1995 40.3328 78.0882 40.3364V48.4389C76.3092 48.4354 74.5248 48.4434 72.7458 48.4389V45.7678H70.0746V48.4389C70.9632 48.4407 71.8572 48.4363 72.7458 48.4389V51.1101H70.0746V53.7813H72.7458V56.4524H75.417V53.7813H78.0882V59.2127H72.7458V56.5415H70.0746V59.0791L69.9411 59.2127H67.3144V61.8838H70.0746V64.555C70.9632 64.5586 71.8572 64.5505 72.7458 64.555C72.7485 63.6664 72.744 62.7724 72.7458 61.8838H78.0882V67.3152H75.417V64.555C74.5284 64.5514 73.6344 64.5595 72.7458 64.555C72.7414 66.3643 72.7494 68.1771 72.7458 69.9864H75.417V75.3287C74.5275 75.3287 73.6353 75.3287 72.7458 75.3287C72.7458 74.4392 72.7458 73.5471 72.7458 72.6576H70.0746V75.3287H72.7458V77.9999H64.6432V75.3287C65.5328 75.3287 66.4258 75.3287 67.3153 75.3287V72.6567C68.2039 72.6522 69.097 72.6602 69.9856 72.6567V64.5541H67.448L67.3144 64.6877V67.3143H59.3009C59.2991 68.2029 59.3036 69.0969 59.3009 69.9855C58.382 69.9899 57.4596 69.9819 56.5407 69.9855V72.6567C57.4596 72.6584 58.382 72.654 59.3009 72.6567C59.2965 74.4357 59.3036 76.22 59.3009 77.999H56.5407V75.3278C55.6521 75.3261 54.7581 75.3305 53.8695 75.3278C53.874 73.5488 53.866 71.7645 53.8695 69.9855H51.1984C51.2019 71.7645 51.1939 73.5488 51.1984 75.3278C50.3097 75.3261 49.4158 75.3261 48.5272 75.3278C48.5245 76.2164 48.529 77.1104 48.5272 77.999H45.767C45.7634 77.1104 45.7714 76.2164 45.767 75.3278C44.8784 75.3305 43.9844 75.3261 43.0958 75.3278V77.999H34.9932V75.4614L35.1268 75.3278H40.4246V69.9855H37.7535V67.2253H43.0958V72.6567H45.767C45.7705 73.5453 45.7625 74.4392 45.767 75.3278C46.6859 75.3252 47.6083 75.3296 48.5272 75.3278C48.5316 73.5488 48.5236 71.7645 48.5272 69.9855H45.767C45.7634 68.1762 45.7714 66.3634 45.767 64.5541C44.8784 64.5514 43.9844 64.5559 43.0958 64.5541V61.8829H45.767C45.7688 62.7715 45.7643 63.6655 45.767 64.5541C46.6859 64.5568 47.6083 64.5523 48.5272 64.5541V67.2253H53.8695V61.8829H51.1984V59.2118H48.5272V56.5406H45.767V59.2118H40.4246V56.5406H37.7535C37.7543 55.6217 37.7517 54.6993 37.7535 53.7804C38.6421 53.7759 39.536 53.7839 40.4246 53.7804V51.1092H37.7535C37.7526 51.9978 37.7552 52.8918 37.7535 53.7804C36.8648 53.7848 35.9709 53.7768 35.0823 53.7804V61.8829H32.3221C32.3185 62.7715 32.3265 63.6655 32.3221 64.5541C30.5431 64.5434 28.7587 64.5621 26.9797 64.5541V67.2253H32.3221C32.3256 66.3367 32.3176 65.4427 32.3221 64.5541C33.0682 64.5586 34.0708 64.4669 34.7751 64.5497C34.9051 64.5648 35.0039 64.5603 35.0823 64.6877V72.6567H21.5483V61.8829H24.2195V59.2118H21.5483V56.5406H13.5348C13.533 55.6217 13.5375 54.6993 13.5348 53.7804C17.0225 53.7991 20.5128 53.7706 24.0014 53.7759L24.3086 53.9139V59.2118H26.9797V61.8829H29.6509V59.2118H32.3221C32.3185 57.4025 32.3265 55.5897 32.3221 53.7804C33.2107 53.7777 34.1046 53.7822 34.9932 53.7804V45.7669H32.3221V48.438H29.6509C29.6491 49.3266 29.6536 50.2206 29.6509 51.1092C28.7623 51.1048 27.8683 51.1128 26.9797 51.1092V48.438H24.3086V51.1092C20.7194 51.1235 17.124 51.0905 13.5348 51.1092C13.5375 50.2206 13.533 49.3266 13.5348 48.438H24.2195V45.7669H13.5348V43.1402L13.4013 43.0067H10.7746C10.7711 42.118 10.7791 41.2241 10.7746 40.3355C9.88601 40.3373 8.99205 40.3346 8.10345 40.3355V43.0067H0.000890581V37.6643H2.7611V40.3355H5.43227V37.6643H10.7746C10.7782 38.5529 10.7702 39.4469 10.7746 40.3355C11.6935 40.3337 12.6159 40.3364 13.5348 40.3355V43.0067H24.2195V40.3355H16.206V37.6643C18.8754 37.6714 21.5501 37.659 24.2195 37.6643V34.9931H16.206V37.6643C15.3174 37.6616 14.4234 37.6661 13.5348 37.6643V32.2329H18.8772V29.5618C17.9877 29.56 17.0946 29.5626 16.2051 29.5618C16.2051 28.6723 16.2051 27.7792 16.2051 26.8897C15.3165 26.887 14.4225 26.8915 13.5339 26.8897V24.2185H10.7737V26.8897C8.99473 26.8879 7.21038 26.887 5.43138 26.8897C5.43316 28.6687 5.43049 30.453 5.43138 32.232H8.10256V34.9922H0.133559L0 34.8587V32.3656L0.133559 32.232H2.76021V29.5609H0V26.8897C1.80927 26.8879 3.62211 26.8924 5.43138 26.8897C5.4296 25.0804 5.43227 23.2676 5.43138 21.4583H18.8763V24.2185H16.2051V26.8897C17.0946 26.8924 17.9877 26.8879 18.8772 26.8897C18.8772 27.7792 18.8772 28.6723 18.8772 29.5618C20.6562 29.5662 22.4405 29.5582 24.2195 29.5618V26.8906H21.5483V24.2194H24.3086V26.8906H26.9797L26.9815 26.8897ZM64.645 24.2185H61.9739V26.8897H64.645V24.2185ZM69.9874 24.2185H67.3162V26.8897H69.9874V24.2185ZM40.4264 29.5609H37.7552V32.232H40.4264V29.5609ZM29.6527 37.6634H26.9815V43.0058H24.3103V45.766H29.6527V37.6634ZM69.9874 43.0058H64.645V45.766H69.9874V43.0058ZM69.9874 48.4371H67.3162V51.1083H69.9874V48.4371ZM69.9874 53.7795H67.4498L67.3162 53.9131V56.4507H69.9874V53.7795ZM64.645 56.5397H56.5425V64.5532H64.645V56.5397ZM26.9815 67.3134H24.3103V69.9846H26.9815V67.3134Z" fill="black"/>
<path d="M59.3029 34.9924C58.384 34.9933 57.4616 34.9906 56.5427 34.9924C56.5427 34.2516 56.4563 33.2383 56.5382 32.5394C56.5534 32.4094 56.5489 32.3105 56.6762 32.2322H59.1693C59.2966 32.3105 59.2922 32.4094 59.3073 32.5394C59.3901 33.2437 59.2984 34.2462 59.3029 34.9924Z" fill="black"/>
<path d="M56.5418 34.9923C56.5418 35.8818 56.5418 36.7749 56.5418 37.6644C57.4607 37.6662 58.3841 37.6608 59.3029 37.6644C59.3003 38.553 59.3047 39.4469 59.3029 40.3355H56.5427V48.4381H51.2004V45.7669H53.8716V37.6644C52.9829 37.6608 52.089 37.6688 51.2004 37.6644C51.2022 36.7749 51.1995 35.8818 51.2004 34.9923C52.9803 34.9914 54.7637 34.9959 56.5436 34.9923H56.5418Z" fill="black"/>
<path d="M29.6517 51.1085C30.5412 51.113 31.4343 51.1059 32.3238 51.1085C32.3238 51.998 32.3211 52.8911 32.3238 53.7806C31.4352 53.7833 30.5412 53.7779 29.6526 53.7806C29.6499 54.6995 29.6544 55.6219 29.6526 56.5408H26.9814V53.7806C27.8701 53.7788 28.764 53.7833 29.6526 53.7806C29.6544 52.892 29.6499 51.998 29.6526 51.1094L29.6517 51.1085Z" fill="black"/>
<path d="M13.5356 51.1084C13.5329 51.997 13.5338 52.8909 13.5356 53.7795C12.6167 53.7751 11.6943 53.7831 10.7754 53.7795V51.1084C11.6943 51.1048 12.6167 51.1128 13.5356 51.1084Z" fill="black"/>
<path d="M18.8782 59.2109V77.9982H0.00195312V59.2109H18.8782ZM16.2071 61.8821H2.76216V75.327H16.2071V61.8821Z" fill="black"/>
<path d="M18.8782 0V18.7872H0.00195312V0H18.8782ZM16.2071 2.67117H2.76216V16.1161H16.2071V2.67117Z" fill="black"/>
<path d="M78.089 0V18.7872H59.3018V0H78.089ZM75.4178 2.67117H61.9729V16.1161H75.4178V2.67117Z" fill="black"/>
<path d="M26.9812 2.67114V5.34231H24.31V21.4139L24.1765 21.5474H21.6834L21.5498 21.4139V5.34231H24.221V2.67114H26.9812Z" fill="black"/>
<path d="M2.76216 45.7661V56.4063L2.62861 56.5398H0.135512L0.00195312 56.4063V45.7661H2.76216Z" fill="black"/>
<path d="M40.4251 16.116H37.7539V21.5473H40.4251V16.116Z" fill="black"/>
<path d="M8.10477 48.4373H5.43359V53.7796H8.10477V48.4373Z" fill="black"/>
<path d="M0.00195312 24.2187V21.5921L0.135512 21.4585H2.62861L2.76216 21.5921V24.0851L2.62861 24.2187H0.00195312Z" fill="black"/>
<path d="M24.31 77.9981H21.5498V75.3269H24.1765L24.31 75.4605V77.9981Z" fill="black"/>
<path d="M40.4251 61.8821H37.7539V64.5533H40.4251V61.8821Z" fill="black"/>
<path d="M53.8714 0H51.2002V2.67117H53.8714V0Z" fill="black"/>
<path d="M29.6526 16.116H26.9814V18.7871H29.6526V16.116Z" fill="black"/>
<path d="M32.3235 75.3269H29.6523V77.9981H32.3235V75.3269Z" fill="black"/>
<path d="M40.4251 40.3345H37.7539V43.0056H40.4251V40.3345Z" fill="black"/>
<path d="M61.9729 59.2109H59.3018V61.8821H61.9729V59.2109Z" fill="black"/>
<path d="M13.5361 64.5532H5.43359V72.6558H13.5361V64.5532Z" fill="black"/>
<path d="M13.5361 5.34229V13.3113L13.4026 13.4448H5.43359V5.34229H13.5361Z" fill="black"/>
<path d="M72.7471 5.34229H64.6445V13.4448H72.7471V5.34229Z" fill="black"/>
</svg>
